<mxfile host="Electron" agent="Mozilla/5.0 (Windows NT 10.0; Win64; x64) AppleWebKit/537.36 (KHTML, like Gecko) draw.io/27.0.9 Chrome/134.0.6998.205 Electron/35.4.0 Safari/537.36" version="27.0.9">
  <diagram name="Sayfa -1" id="UEE7Ne83-2JBuRYHIGqH">
    <mxGraphModel dx="1584" dy="943" grid="1" gridSize="10" guides="1" tooltips="1" connect="1" arrows="1" fold="1" page="1" pageScale="1" pageWidth="827" pageHeight="1169" math="0" shadow="0">
      <root>
        <mxCell id="0" />
        <mxCell id="1" parent="0" />
        <mxCell id="CUxNx2Lyiru3y5fdptrg-1" value="eu-west-1&lt;div&gt;(Ireland Region)&lt;/div&gt;" style="points=[[0,0],[0.25,0],[0.5,0],[0.75,0],[1,0],[1,0.25],[1,0.5],[1,0.75],[1,1],[0.75,1],[0.5,1],[0.25,1],[0,1],[0,0.75],[0,0.5],[0,0.25]];outlineConnect=0;gradientColor=none;html=1;whiteSpace=wrap;fontSize=12;fontStyle=0;container=1;pointerEvents=0;collapsible=0;recursiveResize=0;shape=mxgraph.aws4.group;grIcon=mxgraph.aws4.group_region;strokeColor=#00A4A6;fillColor=none;verticalAlign=top;align=left;spacingLeft=30;fontColor=#147EBA;dashed=1;" vertex="1" parent="1">
          <mxGeometry x="200" y="40" width="1320" height="800" as="geometry" />
        </mxCell>
        <mxCell id="CUxNx2Lyiru3y5fdptrg-2" value="10.0.0.0/16" style="sketch=0;outlineConnect=0;gradientColor=none;html=1;whiteSpace=wrap;fontSize=12;fontStyle=0;shape=mxgraph.aws4.group;grIcon=mxgraph.aws4.group_vpc;strokeColor=#B6BABF;fillColor=none;verticalAlign=top;align=left;spacingLeft=30;fontColor=#B6BABF;dashed=0;" vertex="1" parent="CUxNx2Lyiru3y5fdptrg-1">
          <mxGeometry x="120" y="40" width="1120" height="680" as="geometry" />
        </mxCell>
        <mxCell id="CUxNx2Lyiru3y5fdptrg-10" value="S3 for&amp;nbsp;&lt;div&gt;Wordpress&lt;/div&gt;" style="sketch=0;outlineConnect=0;fontColor=#232F3E;gradientColor=none;fillColor=#7AA116;strokeColor=none;dashed=0;verticalLabelPosition=bottom;verticalAlign=top;align=center;html=1;fontSize=12;fontStyle=0;aspect=fixed;pointerEvents=1;shape=mxgraph.aws4.bucket_with_objects;" vertex="1" parent="CUxNx2Lyiru3y5fdptrg-1">
          <mxGeometry x="40" y="560" width="38.46" height="40" as="geometry" />
        </mxCell>
        <mxCell id="CUxNx2Lyiru3y5fdptrg-11" value="VPC Endpoint" style="sketch=0;outlineConnect=0;fontColor=#232F3E;gradientColor=none;fillColor=#8C4FFF;strokeColor=none;dashed=0;verticalLabelPosition=bottom;verticalAlign=top;align=center;html=1;fontSize=12;fontStyle=0;aspect=fixed;pointerEvents=1;shape=mxgraph.aws4.endpoints;" vertex="1" parent="CUxNx2Lyiru3y5fdptrg-1">
          <mxGeometry x="155.5" y="640" width="49" height="49" as="geometry" />
        </mxCell>
        <mxCell id="CUxNx2Lyiru3y5fdptrg-12" value="public-subnet-AZ1&lt;div&gt;10.0.0.1/24&lt;/div&gt;" style="points=[[0,0],[0.25,0],[0.5,0],[0.75,0],[1,0],[1,0.25],[1,0.5],[1,0.75],[1,1],[0.75,1],[0.5,1],[0.25,1],[0,1],[0,0.75],[0,0.5],[0,0.25]];outlineConnect=0;gradientColor=none;html=1;whiteSpace=wrap;fontSize=12;fontStyle=0;container=1;pointerEvents=0;collapsible=0;recursiveResize=0;shape=mxgraph.aws4.group;grIcon=mxgraph.aws4.group_security_group;grStroke=0;strokeColor=#7AA116;fillColor=#F2F6E8;verticalAlign=top;align=left;spacingLeft=30;fontColor=#248814;dashed=0;" vertex="1" parent="CUxNx2Lyiru3y5fdptrg-1">
          <mxGeometry x="240" y="160" width="240" height="160" as="geometry" />
        </mxCell>
        <mxCell id="CUxNx2Lyiru3y5fdptrg-20" value="" style="outlineConnect=0;dashed=0;verticalLabelPosition=bottom;verticalAlign=top;align=center;html=1;shape=mxgraph.aws3.vpc_nat_gateway;fillColor=#F58534;gradientColor=none;" vertex="1" parent="CUxNx2Lyiru3y5fdptrg-12">
          <mxGeometry x="88" y="49" width="64" height="62" as="geometry" />
        </mxCell>
        <mxCell id="CUxNx2Lyiru3y5fdptrg-94" value="" style="endArrow=none;html=1;rounded=0;" edge="1" parent="CUxNx2Lyiru3y5fdptrg-12">
          <mxGeometry width="50" height="50" relative="1" as="geometry">
            <mxPoint x="152" y="79.47000000000003" as="sourcePoint" />
            <mxPoint x="262" y="79.47000000000003" as="targetPoint" />
          </mxGeometry>
        </mxCell>
        <mxCell id="CUxNx2Lyiru3y5fdptrg-107" value="openVPN" style="html=1;strokeWidth=1;shadow=0;dashed=0;shape=mxgraph.ios7.misc.vpn;fillColor=#007AFF;strokeColor=none;buttonText=;strokeColor2=#222222;fontColor=#222222;fontSize=8;verticalLabelPosition=bottom;verticalAlign=top;align=center;sketch=0;" vertex="1" parent="CUxNx2Lyiru3y5fdptrg-12">
          <mxGeometry x="180" y="110" width="25" height="25" as="geometry" />
        </mxCell>
        <mxCell id="CUxNx2Lyiru3y5fdptrg-13" value="app-subnet-AZ1&lt;div&gt;10.0.0.10/24&lt;/div&gt;" style="points=[[0,0],[0.25,0],[0.5,0],[0.75,0],[1,0],[1,0.25],[1,0.5],[1,0.75],[1,1],[0.75,1],[0.5,1],[0.25,1],[0,1],[0,0.75],[0,0.5],[0,0.25]];outlineConnect=0;gradientColor=none;html=1;whiteSpace=wrap;fontSize=12;fontStyle=0;container=1;pointerEvents=0;collapsible=0;recursiveResize=0;shape=mxgraph.aws4.group;grIcon=mxgraph.aws4.group_security_group;grStroke=0;strokeColor=#00A4A6;fillColor=#E6F6F7;verticalAlign=top;align=left;spacingLeft=30;fontColor=#147EBA;dashed=0;" vertex="1" parent="CUxNx2Lyiru3y5fdptrg-1">
          <mxGeometry x="560" y="160" width="240" height="160" as="geometry" />
        </mxCell>
        <mxCell id="CUxNx2Lyiru3y5fdptrg-22" value="Wordpress + PHP8.3" style="outlineConnect=0;dashed=0;verticalLabelPosition=bottom;verticalAlign=top;align=center;html=1;shape=mxgraph.aws3.ec2;fillColor=#F58534;gradientColor=none;" vertex="1" parent="CUxNx2Lyiru3y5fdptrg-13">
          <mxGeometry x="90" y="45" width="60" height="70" as="geometry" />
        </mxCell>
        <mxCell id="CUxNx2Lyiru3y5fdptrg-58" value="" style="endArrow=classic;html=1;rounded=0;" edge="1" parent="CUxNx2Lyiru3y5fdptrg-13">
          <mxGeometry width="50" height="50" relative="1" as="geometry">
            <mxPoint x="40" y="79.63" as="sourcePoint" />
            <mxPoint x="80" y="79.63" as="targetPoint" />
          </mxGeometry>
        </mxCell>
        <mxCell id="CUxNx2Lyiru3y5fdptrg-100" value="" style="endArrow=classic;html=1;rounded=0;" edge="1" parent="CUxNx2Lyiru3y5fdptrg-13">
          <mxGeometry width="50" height="50" relative="1" as="geometry">
            <mxPoint x="119.56999999999994" y="180" as="sourcePoint" />
            <mxPoint x="119.56999999999994" y="140" as="targetPoint" />
          </mxGeometry>
        </mxCell>
        <mxCell id="CUxNx2Lyiru3y5fdptrg-14" value="data-subnet-AZ1&lt;div&gt;10.0.0.20/24&lt;/div&gt;" style="points=[[0,0],[0.25,0],[0.5,0],[0.75,0],[1,0],[1,0.25],[1,0.5],[1,0.75],[1,1],[0.75,1],[0.5,1],[0.25,1],[0,1],[0,0.75],[0,0.5],[0,0.25]];outlineConnect=0;gradientColor=none;html=1;whiteSpace=wrap;fontSize=12;fontStyle=0;container=1;pointerEvents=0;collapsible=0;recursiveResize=0;shape=mxgraph.aws4.group;grIcon=mxgraph.aws4.group_security_group;grStroke=0;strokeColor=#00A4A6;fillColor=#E6F6F7;verticalAlign=top;align=left;spacingLeft=30;fontColor=#147EBA;dashed=0;" vertex="1" parent="CUxNx2Lyiru3y5fdptrg-1">
          <mxGeometry x="880" y="160" width="240" height="160" as="geometry" />
        </mxCell>
        <mxCell id="CUxNx2Lyiru3y5fdptrg-15" value="public-subnet-AZ2&lt;div&gt;10.0.1.0/24&lt;/div&gt;" style="points=[[0,0],[0.25,0],[0.5,0],[0.75,0],[1,0],[1,0.25],[1,0.5],[1,0.75],[1,1],[0.75,1],[0.5,1],[0.25,1],[0,1],[0,0.75],[0,0.5],[0,0.25]];outlineConnect=0;gradientColor=none;html=1;whiteSpace=wrap;fontSize=12;fontStyle=0;container=1;pointerEvents=0;collapsible=0;recursiveResize=0;shape=mxgraph.aws4.group;grIcon=mxgraph.aws4.group_security_group;grStroke=0;strokeColor=#7AA116;fillColor=#F2F6E8;verticalAlign=top;align=left;spacingLeft=30;fontColor=#248814;dashed=0;" vertex="1" parent="CUxNx2Lyiru3y5fdptrg-1">
          <mxGeometry x="240" y="440" width="240" height="160" as="geometry" />
        </mxCell>
        <mxCell id="CUxNx2Lyiru3y5fdptrg-21" value="" style="outlineConnect=0;dashed=0;verticalLabelPosition=bottom;verticalAlign=top;align=center;html=1;shape=mxgraph.aws3.vpc_nat_gateway;fillColor=#F58534;gradientColor=none;" vertex="1" parent="CUxNx2Lyiru3y5fdptrg-15">
          <mxGeometry x="88" y="49" width="64" height="62" as="geometry" />
        </mxCell>
        <mxCell id="CUxNx2Lyiru3y5fdptrg-16" value="app-subnet-AZ2&lt;div&gt;10.0.11.0/24&lt;/div&gt;" style="points=[[0,0],[0.25,0],[0.5,0],[0.75,0],[1,0],[1,0.25],[1,0.5],[1,0.75],[1,1],[0.75,1],[0.5,1],[0.25,1],[0,1],[0,0.75],[0,0.5],[0,0.25]];outlineConnect=0;gradientColor=none;html=1;whiteSpace=wrap;fontSize=12;fontStyle=0;container=1;pointerEvents=0;collapsible=0;recursiveResize=0;shape=mxgraph.aws4.group;grIcon=mxgraph.aws4.group_security_group;grStroke=0;strokeColor=#00A4A6;fillColor=#E6F6F7;verticalAlign=top;align=left;spacingLeft=30;fontColor=#147EBA;dashed=0;" vertex="1" parent="CUxNx2Lyiru3y5fdptrg-1">
          <mxGeometry x="560" y="440" width="240" height="160" as="geometry" />
        </mxCell>
        <mxCell id="CUxNx2Lyiru3y5fdptrg-23" value="Wordpress + PHP8.3" style="outlineConnect=0;dashed=0;verticalLabelPosition=bottom;verticalAlign=top;align=center;html=1;shape=mxgraph.aws3.ec2;fillColor=#F58534;gradientColor=none;" vertex="1" parent="CUxNx2Lyiru3y5fdptrg-16">
          <mxGeometry x="90" y="41" width="60" height="70" as="geometry" />
        </mxCell>
        <mxCell id="CUxNx2Lyiru3y5fdptrg-52" value="" style="endArrow=none;html=1;rounded=0;" edge="1" parent="CUxNx2Lyiru3y5fdptrg-16">
          <mxGeometry width="50" height="50" relative="1" as="geometry">
            <mxPoint x="-40" y="79.25999999999999" as="sourcePoint" />
            <mxPoint x="40" y="79.25999999999999" as="targetPoint" />
          </mxGeometry>
        </mxCell>
        <mxCell id="CUxNx2Lyiru3y5fdptrg-53" value="" style="endArrow=classic;html=1;rounded=0;" edge="1" parent="CUxNx2Lyiru3y5fdptrg-16">
          <mxGeometry width="50" height="50" relative="1" as="geometry">
            <mxPoint x="40" y="79.63" as="sourcePoint" />
            <mxPoint x="80" y="79.63" as="targetPoint" />
          </mxGeometry>
        </mxCell>
        <mxCell id="CUxNx2Lyiru3y5fdptrg-65" value="" style="endArrow=classic;html=1;rounded=0;" edge="1" parent="CUxNx2Lyiru3y5fdptrg-16">
          <mxGeometry width="50" height="50" relative="1" as="geometry">
            <mxPoint x="320" y="79.38" as="sourcePoint" />
            <mxPoint x="170" y="79.38" as="targetPoint" />
          </mxGeometry>
        </mxCell>
        <mxCell id="CUxNx2Lyiru3y5fdptrg-74" value="" style="endArrow=classic;html=1;rounded=0;" edge="1" parent="CUxNx2Lyiru3y5fdptrg-16">
          <mxGeometry width="50" height="50" relative="1" as="geometry">
            <mxPoint x="130" y="170" as="sourcePoint" />
            <mxPoint x="130" y="130" as="targetPoint" />
          </mxGeometry>
        </mxCell>
        <mxCell id="CUxNx2Lyiru3y5fdptrg-17" value="data-subnet-AZ2&lt;div&gt;10.0.21.0/24&lt;/div&gt;" style="points=[[0,0],[0.25,0],[0.5,0],[0.75,0],[1,0],[1,0.25],[1,0.5],[1,0.75],[1,1],[0.75,1],[0.5,1],[0.25,1],[0,1],[0,0.75],[0,0.5],[0,0.25]];outlineConnect=0;gradientColor=none;html=1;whiteSpace=wrap;fontSize=12;fontStyle=0;container=1;pointerEvents=0;collapsible=0;recursiveResize=0;shape=mxgraph.aws4.group;grIcon=mxgraph.aws4.group_security_group;grStroke=0;strokeColor=#00A4A6;fillColor=#E6F6F7;verticalAlign=top;align=left;spacingLeft=30;fontColor=#147EBA;dashed=0;" vertex="1" parent="CUxNx2Lyiru3y5fdptrg-1">
          <mxGeometry x="881" y="440" width="240" height="160" as="geometry" />
        </mxCell>
        <mxCell id="CUxNx2Lyiru3y5fdptrg-29" value="" style="outlineConnect=0;dashed=0;verticalLabelPosition=bottom;verticalAlign=top;align=center;html=1;shape=mxgraph.aws3.memcached;fillColor=#2E73B8;gradientColor=none;" vertex="1" parent="CUxNx2Lyiru3y5fdptrg-17">
          <mxGeometry x="9" y="63" width="50" height="48" as="geometry" />
        </mxCell>
        <mxCell id="CUxNx2Lyiru3y5fdptrg-73" value="" style="endArrow=classic;html=1;rounded=0;" edge="1" parent="CUxNx2Lyiru3y5fdptrg-17">
          <mxGeometry width="50" height="50" relative="1" as="geometry">
            <mxPoint x="129" y="170" as="sourcePoint" />
            <mxPoint x="129" y="120" as="targetPoint" />
          </mxGeometry>
        </mxCell>
        <mxCell id="CUxNx2Lyiru3y5fdptrg-18" value="Internet&#xa;gateway" style="sketch=0;outlineConnect=0;fontColor=#232F3E;gradientColor=none;strokeColor=#232F3E;fillColor=#ffffff;dashed=0;verticalLabelPosition=bottom;verticalAlign=top;align=center;html=1;fontSize=12;fontStyle=0;aspect=fixed;shape=mxgraph.aws4.resourceIcon;resIcon=mxgraph.aws4.internet_gateway;" vertex="1" parent="CUxNx2Lyiru3y5fdptrg-1">
          <mxGeometry x="160" y="360" width="40" height="40" as="geometry" />
        </mxCell>
        <mxCell id="CUxNx2Lyiru3y5fdptrg-19" value="Load Balancer" style="outlineConnect=0;dashed=0;verticalLabelPosition=bottom;verticalAlign=top;align=center;html=1;shape=mxgraph.aws3.application_load_balancer;fillColor=#F58534;gradientColor=none;" vertex="1" parent="CUxNx2Lyiru3y5fdptrg-1">
          <mxGeometry x="280" y="352" width="50" height="56" as="geometry" />
        </mxCell>
        <mxCell id="CUxNx2Lyiru3y5fdptrg-24" value="Auto Scaling" style="outlineConnect=0;dashed=0;verticalLabelPosition=bottom;verticalAlign=top;align=center;html=1;shape=mxgraph.aws3.auto_scaling;fillColor=#F58534;gradientColor=none;" vertex="1" parent="CUxNx2Lyiru3y5fdptrg-1">
          <mxGeometry x="635.5" y="356" width="49" height="48" as="geometry" />
        </mxCell>
        <mxCell id="CUxNx2Lyiru3y5fdptrg-25" value="EFS Mount&lt;div&gt;Target&lt;/div&gt;" style="outlineConnect=0;dashed=0;verticalLabelPosition=bottom;verticalAlign=top;align=center;html=1;shape=mxgraph.aws3.efs_share;fillColor=#E05243;gradientColor=none;" vertex="1" parent="CUxNx2Lyiru3y5fdptrg-1">
          <mxGeometry x="1060" y="209" width="50" height="52" as="geometry" />
        </mxCell>
        <mxCell id="CUxNx2Lyiru3y5fdptrg-26" value="EFS Mount&lt;div&gt;Target&lt;/div&gt;" style="outlineConnect=0;dashed=0;verticalLabelPosition=bottom;verticalAlign=top;align=center;html=1;shape=mxgraph.aws3.efs_share;fillColor=#E05243;gradientColor=none;" vertex="1" parent="CUxNx2Lyiru3y5fdptrg-1">
          <mxGeometry x="1060" y="490" width="50" height="52" as="geometry" />
        </mxCell>
        <mxCell id="CUxNx2Lyiru3y5fdptrg-27" value="EFS" style="outlineConnect=0;dashed=0;verticalLabelPosition=bottom;verticalAlign=top;align=center;html=1;shape=mxgraph.aws3.efs;fillColor=#E05243;gradientColor=none;" vertex="1" parent="CUxNx2Lyiru3y5fdptrg-1">
          <mxGeometry x="1250" y="320" width="60" height="66" as="geometry" />
        </mxCell>
        <mxCell id="CUxNx2Lyiru3y5fdptrg-28" value="" style="outlineConnect=0;dashed=0;verticalLabelPosition=bottom;verticalAlign=top;align=center;html=1;shape=mxgraph.aws3.memcached;fillColor=#2E73B8;gradientColor=none;" vertex="1" parent="CUxNx2Lyiru3y5fdptrg-1">
          <mxGeometry x="890" y="222" width="50" height="48" as="geometry" />
        </mxCell>
        <mxCell id="CUxNx2Lyiru3y5fdptrg-30" value="Read&amp;nbsp;&lt;div&gt;Replica&lt;/div&gt;" style="sketch=0;outlineConnect=0;fontColor=#232F3E;gradientColor=none;fillColor=#C925D1;strokeColor=none;dashed=0;verticalLabelPosition=bottom;verticalAlign=top;align=center;html=1;fontSize=12;fontStyle=0;aspect=fixed;pointerEvents=1;shape=mxgraph.aws4.rds_mariadb_instance;" vertex="1" parent="CUxNx2Lyiru3y5fdptrg-1">
          <mxGeometry x="974.5" y="219" width="51" height="51" as="geometry" />
        </mxCell>
        <mxCell id="CUxNx2Lyiru3y5fdptrg-31" value="Master" style="sketch=0;outlineConnect=0;fontColor=#232F3E;gradientColor=none;fillColor=#C925D1;strokeColor=none;dashed=0;verticalLabelPosition=bottom;verticalAlign=top;align=center;html=1;fontSize=12;fontStyle=0;aspect=fixed;pointerEvents=1;shape=mxgraph.aws4.rds_mariadb_instance;" vertex="1" parent="CUxNx2Lyiru3y5fdptrg-1">
          <mxGeometry x="974.5" y="494.5" width="51" height="51" as="geometry" />
        </mxCell>
        <mxCell id="CUxNx2Lyiru3y5fdptrg-42" value="" style="endArrow=none;html=1;rounded=0;" edge="1" parent="CUxNx2Lyiru3y5fdptrg-1">
          <mxGeometry width="50" height="50" relative="1" as="geometry">
            <mxPoint x="-80" y="542" as="sourcePoint" />
            <mxPoint x="60" y="542" as="targetPoint" />
          </mxGeometry>
        </mxCell>
        <mxCell id="CUxNx2Lyiru3y5fdptrg-43" value="" style="endArrow=none;html=1;rounded=0;" edge="1" parent="CUxNx2Lyiru3y5fdptrg-1">
          <mxGeometry width="50" height="50" relative="1" as="geometry">
            <mxPoint x="58.94999999999999" y="542" as="sourcePoint" />
            <mxPoint x="60" y="380" as="targetPoint" />
          </mxGeometry>
        </mxCell>
        <mxCell id="CUxNx2Lyiru3y5fdptrg-44" value="" style="endArrow=classic;html=1;rounded=0;" edge="1" parent="CUxNx2Lyiru3y5fdptrg-1">
          <mxGeometry width="50" height="50" relative="1" as="geometry">
            <mxPoint x="60" y="379.72" as="sourcePoint" />
            <mxPoint x="160" y="379.72" as="targetPoint" />
          </mxGeometry>
        </mxCell>
        <mxCell id="CUxNx2Lyiru3y5fdptrg-47" value="" style="endArrow=classic;startArrow=classic;html=1;rounded=0;" edge="1" parent="CUxNx2Lyiru3y5fdptrg-1">
          <mxGeometry width="50" height="50" relative="1" as="geometry">
            <mxPoint x="204.5" y="379.66999999999996" as="sourcePoint" />
            <mxPoint x="264.5" y="379.66999999999996" as="targetPoint" />
          </mxGeometry>
        </mxCell>
        <mxCell id="CUxNx2Lyiru3y5fdptrg-48" value="" style="endArrow=none;html=1;rounded=0;" edge="1" parent="CUxNx2Lyiru3y5fdptrg-1">
          <mxGeometry width="50" height="50" relative="1" as="geometry">
            <mxPoint x="180" y="519.6" as="sourcePoint" />
            <mxPoint x="320" y="519.6" as="targetPoint" />
          </mxGeometry>
        </mxCell>
        <mxCell id="CUxNx2Lyiru3y5fdptrg-49" value="" style="endArrow=classic;html=1;rounded=0;" edge="1" parent="CUxNx2Lyiru3y5fdptrg-1">
          <mxGeometry width="50" height="50" relative="1" as="geometry">
            <mxPoint x="179.60000000000002" y="520" as="sourcePoint" />
            <mxPoint x="179.60000000000002" y="430" as="targetPoint" />
          </mxGeometry>
        </mxCell>
        <mxCell id="CUxNx2Lyiru3y5fdptrg-50" value="" style="endArrow=none;html=1;rounded=0;" edge="1" parent="CUxNx2Lyiru3y5fdptrg-1">
          <mxGeometry width="50" height="50" relative="1" as="geometry">
            <mxPoint x="180" y="239.85" as="sourcePoint" />
            <mxPoint x="320" y="239.85" as="targetPoint" />
          </mxGeometry>
        </mxCell>
        <mxCell id="CUxNx2Lyiru3y5fdptrg-51" value="" style="endArrow=classic;html=1;rounded=0;" edge="1" parent="CUxNx2Lyiru3y5fdptrg-1" target="CUxNx2Lyiru3y5fdptrg-18">
          <mxGeometry width="50" height="50" relative="1" as="geometry">
            <mxPoint x="179.85" y="240" as="sourcePoint" />
            <mxPoint x="179.85" y="330" as="targetPoint" />
          </mxGeometry>
        </mxCell>
        <mxCell id="CUxNx2Lyiru3y5fdptrg-54" value="" style="endArrow=none;html=1;rounded=0;" edge="1" parent="CUxNx2Lyiru3y5fdptrg-1">
          <mxGeometry width="50" height="50" relative="1" as="geometry">
            <mxPoint x="520" y="520" as="sourcePoint" />
            <mxPoint x="520" y="380" as="targetPoint" />
          </mxGeometry>
        </mxCell>
        <mxCell id="CUxNx2Lyiru3y5fdptrg-55" value="" style="endArrow=classic;html=1;rounded=0;" edge="1" parent="CUxNx2Lyiru3y5fdptrg-1">
          <mxGeometry width="50" height="50" relative="1" as="geometry">
            <mxPoint x="520" y="379.63" as="sourcePoint" />
            <mxPoint x="340" y="380" as="targetPoint" />
          </mxGeometry>
        </mxCell>
        <mxCell id="CUxNx2Lyiru3y5fdptrg-56" value="" style="endArrow=none;html=1;rounded=0;" edge="1" parent="CUxNx2Lyiru3y5fdptrg-1">
          <mxGeometry width="50" height="50" relative="1" as="geometry">
            <mxPoint x="520" y="380" as="sourcePoint" />
            <mxPoint x="520" y="240" as="targetPoint" />
          </mxGeometry>
        </mxCell>
        <mxCell id="CUxNx2Lyiru3y5fdptrg-57" value="" style="endArrow=none;html=1;rounded=0;" edge="1" parent="CUxNx2Lyiru3y5fdptrg-1">
          <mxGeometry width="50" height="50" relative="1" as="geometry">
            <mxPoint x="520" y="239.63" as="sourcePoint" />
            <mxPoint x="600" y="239.63" as="targetPoint" />
          </mxGeometry>
        </mxCell>
        <mxCell id="CUxNx2Lyiru3y5fdptrg-60" value="" style="endArrow=classic;html=1;rounded=0;" edge="1" parent="CUxNx2Lyiru3y5fdptrg-1">
          <mxGeometry width="50" height="50" relative="1" as="geometry">
            <mxPoint x="1201" y="239.79" as="sourcePoint" />
            <mxPoint x="1121" y="239.79" as="targetPoint" />
          </mxGeometry>
        </mxCell>
        <mxCell id="CUxNx2Lyiru3y5fdptrg-61" value="" style="endArrow=classic;html=1;rounded=0;" edge="1" parent="CUxNx2Lyiru3y5fdptrg-1">
          <mxGeometry width="50" height="50" relative="1" as="geometry">
            <mxPoint x="1201" y="519.79" as="sourcePoint" />
            <mxPoint x="1121" y="519.79" as="targetPoint" />
          </mxGeometry>
        </mxCell>
        <mxCell id="CUxNx2Lyiru3y5fdptrg-63" value="" style="endArrow=none;html=1;rounded=0;" edge="1" parent="CUxNx2Lyiru3y5fdptrg-1">
          <mxGeometry width="50" height="50" relative="1" as="geometry">
            <mxPoint x="1200" y="520" as="sourcePoint" />
            <mxPoint x="1200" y="240" as="targetPoint" />
          </mxGeometry>
        </mxCell>
        <mxCell id="CUxNx2Lyiru3y5fdptrg-64" value="" style="endArrow=classic;html=1;rounded=0;" edge="1" parent="CUxNx2Lyiru3y5fdptrg-1">
          <mxGeometry width="50" height="50" relative="1" as="geometry">
            <mxPoint x="1200" y="360" as="sourcePoint" />
            <mxPoint x="1240" y="360" as="targetPoint" />
          </mxGeometry>
        </mxCell>
        <mxCell id="CUxNx2Lyiru3y5fdptrg-66" value="" style="endArrow=classic;html=1;rounded=0;" edge="1" parent="CUxNx2Lyiru3y5fdptrg-1">
          <mxGeometry width="50" height="50" relative="1" as="geometry">
            <mxPoint x="881" y="239.37" as="sourcePoint" />
            <mxPoint x="731" y="239.37" as="targetPoint" />
          </mxGeometry>
        </mxCell>
        <mxCell id="CUxNx2Lyiru3y5fdptrg-69" value="" style="endArrow=classic;html=1;rounded=0;" edge="1" parent="CUxNx2Lyiru3y5fdptrg-1">
          <mxGeometry width="50" height="50" relative="1" as="geometry">
            <mxPoint x="1010" y="129" as="sourcePoint" />
            <mxPoint x="1010" y="209" as="targetPoint" />
          </mxGeometry>
        </mxCell>
        <mxCell id="CUxNx2Lyiru3y5fdptrg-70" value="" style="endArrow=none;html=1;rounded=0;" edge="1" parent="CUxNx2Lyiru3y5fdptrg-1">
          <mxGeometry width="50" height="50" relative="1" as="geometry">
            <mxPoint x="690" y="130" as="sourcePoint" />
            <mxPoint x="1010" y="130" as="targetPoint" />
          </mxGeometry>
        </mxCell>
        <mxCell id="CUxNx2Lyiru3y5fdptrg-71" value="" style="endArrow=classic;html=1;rounded=0;" edge="1" parent="CUxNx2Lyiru3y5fdptrg-1">
          <mxGeometry width="50" height="50" relative="1" as="geometry">
            <mxPoint x="690" y="129" as="sourcePoint" />
            <mxPoint x="690" y="209" as="targetPoint" />
          </mxGeometry>
        </mxCell>
        <mxCell id="CUxNx2Lyiru3y5fdptrg-72" value="" style="endArrow=none;html=1;rounded=0;" edge="1" parent="CUxNx2Lyiru3y5fdptrg-1">
          <mxGeometry width="50" height="50" relative="1" as="geometry">
            <mxPoint x="690" y="610" as="sourcePoint" />
            <mxPoint x="1010" y="610" as="targetPoint" />
          </mxGeometry>
        </mxCell>
        <mxCell id="CUxNx2Lyiru3y5fdptrg-79" style="edgeStyle=orthogonalEdgeStyle;rounded=0;orthogonalLoop=1;jettySize=auto;html=1;exitX=0.5;exitY=1;exitDx=0;exitDy=0;exitPerimeter=0;entryX=0.5;entryY=1;entryDx=0;entryDy=0;entryPerimeter=0;" edge="1" parent="CUxNx2Lyiru3y5fdptrg-1" source="CUxNx2Lyiru3y5fdptrg-23" target="CUxNx2Lyiru3y5fdptrg-21">
          <mxGeometry relative="1" as="geometry" />
        </mxCell>
        <mxCell id="CUxNx2Lyiru3y5fdptrg-80" style="edgeStyle=orthogonalEdgeStyle;rounded=0;orthogonalLoop=1;jettySize=auto;html=1;exitX=0.5;exitY=0;exitDx=0;exitDy=0;exitPerimeter=0;entryX=0.5;entryY=0;entryDx=0;entryDy=0;entryPerimeter=0;" edge="1" parent="CUxNx2Lyiru3y5fdptrg-1" source="CUxNx2Lyiru3y5fdptrg-22" target="CUxNx2Lyiru3y5fdptrg-20">
          <mxGeometry relative="1" as="geometry" />
        </mxCell>
        <mxCell id="CUxNx2Lyiru3y5fdptrg-82" value="" style="endArrow=classic;html=1;rounded=0;" edge="1" parent="CUxNx2Lyiru3y5fdptrg-1">
          <mxGeometry width="50" height="50" relative="1" as="geometry">
            <mxPoint x="881" y="261" as="sourcePoint" />
            <mxPoint x="731" y="261" as="targetPoint" />
          </mxGeometry>
        </mxCell>
        <mxCell id="CUxNx2Lyiru3y5fdptrg-83" value="" style="endArrow=none;html=1;rounded=0;" edge="1" parent="CUxNx2Lyiru3y5fdptrg-1">
          <mxGeometry width="50" height="50" relative="1" as="geometry">
            <mxPoint x="880" y="400" as="sourcePoint" />
            <mxPoint x="880" y="260" as="targetPoint" />
          </mxGeometry>
        </mxCell>
        <mxCell id="CUxNx2Lyiru3y5fdptrg-84" value="" style="endArrow=none;html=1;rounded=0;" edge="1" parent="CUxNx2Lyiru3y5fdptrg-1">
          <mxGeometry width="50" height="50" relative="1" as="geometry">
            <mxPoint x="880" y="400.00000000000006" as="sourcePoint" />
            <mxPoint x="1010" y="400.00000000000006" as="targetPoint" />
          </mxGeometry>
        </mxCell>
        <mxCell id="CUxNx2Lyiru3y5fdptrg-85" value="" style="endArrow=classic;html=1;rounded=0;" edge="1" parent="CUxNx2Lyiru3y5fdptrg-1">
          <mxGeometry width="50" height="50" relative="1" as="geometry">
            <mxPoint x="1010" y="400" as="sourcePoint" />
            <mxPoint x="1010" y="480" as="targetPoint" />
          </mxGeometry>
        </mxCell>
        <mxCell id="CUxNx2Lyiru3y5fdptrg-86" value="" style="endArrow=classic;html=1;rounded=0;" edge="1" parent="CUxNx2Lyiru3y5fdptrg-1">
          <mxGeometry width="50" height="50" relative="1" as="geometry">
            <mxPoint x="870" y="500" as="sourcePoint" />
            <mxPoint x="730" y="500" as="targetPoint" />
          </mxGeometry>
        </mxCell>
        <mxCell id="CUxNx2Lyiru3y5fdptrg-88" value="" style="endArrow=none;html=1;rounded=0;" edge="1" parent="CUxNx2Lyiru3y5fdptrg-1">
          <mxGeometry width="50" height="50" relative="1" as="geometry">
            <mxPoint x="871" y="360.00000000000006" as="sourcePoint" />
            <mxPoint x="1010" y="360" as="targetPoint" />
          </mxGeometry>
        </mxCell>
        <mxCell id="CUxNx2Lyiru3y5fdptrg-89" value="" style="endArrow=none;html=1;rounded=0;" edge="1" parent="CUxNx2Lyiru3y5fdptrg-1">
          <mxGeometry width="50" height="50" relative="1" as="geometry">
            <mxPoint x="870" y="500" as="sourcePoint" />
            <mxPoint x="870" y="360" as="targetPoint" />
          </mxGeometry>
        </mxCell>
        <mxCell id="CUxNx2Lyiru3y5fdptrg-90" value="" style="endArrow=classic;html=1;rounded=0;" edge="1" parent="CUxNx2Lyiru3y5fdptrg-1">
          <mxGeometry width="50" height="50" relative="1" as="geometry">
            <mxPoint x="1010" y="360" as="sourcePoint" />
            <mxPoint x="1010" y="320" as="targetPoint" />
          </mxGeometry>
        </mxCell>
        <mxCell id="CUxNx2Lyiru3y5fdptrg-91" value="" style="endArrow=none;html=1;rounded=0;" edge="1" parent="CUxNx2Lyiru3y5fdptrg-1">
          <mxGeometry width="50" height="50" relative="1" as="geometry">
            <mxPoint x="180" y="540" as="sourcePoint" />
            <mxPoint x="320" y="540" as="targetPoint" />
          </mxGeometry>
        </mxCell>
        <mxCell id="CUxNx2Lyiru3y5fdptrg-92" value="" style="endArrow=classic;html=1;rounded=0;" edge="1" parent="CUxNx2Lyiru3y5fdptrg-1">
          <mxGeometry width="50" height="50" relative="1" as="geometry">
            <mxPoint x="179.85000000000002" y="540" as="sourcePoint" />
            <mxPoint x="180" y="620" as="targetPoint" />
          </mxGeometry>
        </mxCell>
        <mxCell id="CUxNx2Lyiru3y5fdptrg-95" value="" style="endArrow=none;html=1;rounded=0;" edge="1" parent="CUxNx2Lyiru3y5fdptrg-1">
          <mxGeometry width="50" height="50" relative="1" as="geometry">
            <mxPoint x="500" y="660" as="sourcePoint" />
            <mxPoint x="500" y="240" as="targetPoint" />
          </mxGeometry>
        </mxCell>
        <mxCell id="CUxNx2Lyiru3y5fdptrg-96" value="" style="endArrow=classic;html=1;rounded=0;" edge="1" parent="CUxNx2Lyiru3y5fdptrg-1">
          <mxGeometry width="50" height="50" relative="1" as="geometry">
            <mxPoint x="500" y="660" as="sourcePoint" />
            <mxPoint x="220" y="660" as="targetPoint" />
          </mxGeometry>
        </mxCell>
        <mxCell id="CUxNx2Lyiru3y5fdptrg-97" value="" style="endArrow=none;html=1;rounded=0;" edge="1" parent="CUxNx2Lyiru3y5fdptrg-1">
          <mxGeometry width="50" height="50" relative="1" as="geometry">
            <mxPoint x="680" y="340" as="sourcePoint" />
            <mxPoint x="1080" y="340" as="targetPoint" />
          </mxGeometry>
        </mxCell>
        <mxCell id="CUxNx2Lyiru3y5fdptrg-98" value="" style="endArrow=classic;html=1;rounded=0;" edge="1" parent="CUxNx2Lyiru3y5fdptrg-1">
          <mxGeometry width="50" height="50" relative="1" as="geometry">
            <mxPoint x="1080" y="340" as="sourcePoint" />
            <mxPoint x="1080" y="300" as="targetPoint" />
          </mxGeometry>
        </mxCell>
        <mxCell id="CUxNx2Lyiru3y5fdptrg-101" value="" style="endArrow=none;html=1;rounded=0;" edge="1" parent="CUxNx2Lyiru3y5fdptrg-1">
          <mxGeometry width="50" height="50" relative="1" as="geometry">
            <mxPoint x="700" y="380" as="sourcePoint" />
            <mxPoint x="1080" y="379.57" as="targetPoint" />
          </mxGeometry>
        </mxCell>
        <mxCell id="CUxNx2Lyiru3y5fdptrg-103" value="" style="endArrow=classic;html=1;rounded=0;" edge="1" parent="CUxNx2Lyiru3y5fdptrg-1">
          <mxGeometry width="50" height="50" relative="1" as="geometry">
            <mxPoint x="700" y="380" as="sourcePoint" />
            <mxPoint x="700" y="460" as="targetPoint" />
          </mxGeometry>
        </mxCell>
        <mxCell id="CUxNx2Lyiru3y5fdptrg-104" value="" style="endArrow=classic;html=1;rounded=0;" edge="1" parent="CUxNx2Lyiru3y5fdptrg-1">
          <mxGeometry width="50" height="50" relative="1" as="geometry">
            <mxPoint x="1080" y="380" as="sourcePoint" />
            <mxPoint x="1080" y="460" as="targetPoint" />
          </mxGeometry>
        </mxCell>
        <mxCell id="CUxNx2Lyiru3y5fdptrg-105" value="" style="endArrow=none;html=1;rounded=0;" edge="1" parent="CUxNx2Lyiru3y5fdptrg-1">
          <mxGeometry width="50" height="50" relative="1" as="geometry">
            <mxPoint x="50" y="670" as="sourcePoint" />
            <mxPoint x="150" y="670" as="targetPoint" />
          </mxGeometry>
        </mxCell>
        <mxCell id="CUxNx2Lyiru3y5fdptrg-106" value="" style="endArrow=classic;html=1;rounded=0;" edge="1" parent="CUxNx2Lyiru3y5fdptrg-1">
          <mxGeometry width="50" height="50" relative="1" as="geometry">
            <mxPoint x="50" y="670" as="sourcePoint" />
            <mxPoint x="50" y="640" as="targetPoint" />
          </mxGeometry>
        </mxCell>
        <mxCell id="CUxNx2Lyiru3y5fdptrg-108" value="" style="rounded=1;arcSize=10;dashed=1;strokeColor=#ff0000;fillColor=none;gradientColor=none;dashPattern=8 4;strokeWidth=2;" vertex="1" parent="CUxNx2Lyiru3y5fdptrg-1">
          <mxGeometry x="221" y="140" width="909" height="199.5" as="geometry" />
        </mxCell>
        <mxCell id="CUxNx2Lyiru3y5fdptrg-109" value="" style="rounded=1;arcSize=10;dashed=1;strokeColor=#ff0000;fillColor=none;gradientColor=none;dashPattern=8 4;strokeWidth=2;" vertex="1" parent="CUxNx2Lyiru3y5fdptrg-1">
          <mxGeometry x="221" y="427" width="909" height="199.5" as="geometry" />
        </mxCell>
        <mxCell id="CUxNx2Lyiru3y5fdptrg-6" value="" style="outlineConnect=0;dashed=0;verticalLabelPosition=bottom;verticalAlign=top;align=center;html=1;shape=mxgraph.aws3.users;fillColor=#D2D3D3;gradientColor=none;" vertex="1" parent="1">
          <mxGeometry x="80" y="200" width="40" height="40" as="geometry" />
        </mxCell>
        <mxCell id="CUxNx2Lyiru3y5fdptrg-7" value="&lt;span style=&quot;white-space: pre;&quot;&gt;&#x9;&lt;/span&gt;&lt;span style=&quot;white-space: pre;&quot;&gt;&#x9;&lt;/span&gt;&amp;nbsp; &amp;nbsp; Route53" style="sketch=0;points=[[0,0,0],[0.25,0,0],[0.5,0,0],[0.75,0,0],[1,0,0],[0,1,0],[0.25,1,0],[0.5,1,0],[0.75,1,0],[1,1,0],[0,0.25,0],[0,0.5,0],[0,0.75,0],[1,0.25,0],[1,0.5,0],[1,0.75,0]];outlineConnect=0;fontColor=#232F3E;fillColor=#8C4FFF;strokeColor=#ffffff;dashed=0;verticalLabelPosition=bottom;verticalAlign=top;align=center;html=1;fontSize=12;fontStyle=0;aspect=fixed;shape=mxgraph.aws4.resourceIcon;resIcon=mxgraph.aws4.route_53;" vertex="1" parent="1">
          <mxGeometry x="80" y="320" width="40" height="40" as="geometry" />
        </mxCell>
        <mxCell id="CUxNx2Lyiru3y5fdptrg-8" value="&lt;span style=&quot;white-space: pre;&quot;&gt;&#x9;&lt;/span&gt;&lt;span style=&quot;white-space: pre;&quot;&gt;&#x9;&lt;/span&gt;WAF" style="sketch=0;points=[[0,0,0],[0.25,0,0],[0.5,0,0],[0.75,0,0],[1,0,0],[0,1,0],[0.25,1,0],[0.5,1,0],[0.75,1,0],[1,1,0],[0,0.25,0],[0,0.5,0],[0,0.75,0],[1,0.25,0],[1,0.5,0],[1,0.75,0]];outlineConnect=0;fontColor=#232F3E;fillColor=#DD344C;strokeColor=#ffffff;dashed=0;verticalLabelPosition=bottom;verticalAlign=top;align=center;html=1;fontSize=12;fontStyle=0;aspect=fixed;shape=mxgraph.aws4.resourceIcon;resIcon=mxgraph.aws4.waf;" vertex="1" parent="1">
          <mxGeometry x="80" y="440" width="40" height="40" as="geometry" />
        </mxCell>
        <mxCell id="CUxNx2Lyiru3y5fdptrg-9" value="&amp;nbsp; &amp;nbsp; &amp;nbsp; &amp;nbsp; &amp;nbsp; &amp;nbsp; &lt;span style=&quot;white-space: pre;&quot;&gt;&#x9;&lt;/span&gt;&amp;nbsp; &amp;nbsp; &amp;nbsp;Cloudfront" style="sketch=0;points=[[0,0,0],[0.25,0,0],[0.5,0,0],[0.75,0,0],[1,0,0],[0,1,0],[0.25,1,0],[0.5,1,0],[0.75,1,0],[1,1,0],[0,0.25,0],[0,0.5,0],[0,0.75,0],[1,0.25,0],[1,0.5,0],[1,0.75,0]];outlineConnect=0;fontColor=#232F3E;fillColor=#8C4FFF;strokeColor=#ffffff;dashed=0;verticalLabelPosition=bottom;verticalAlign=top;align=center;html=1;fontSize=12;fontStyle=0;aspect=fixed;shape=mxgraph.aws4.resourceIcon;resIcon=mxgraph.aws4.cloudfront;" vertex="1" parent="1">
          <mxGeometry x="80" y="560" width="40" height="40" as="geometry" />
        </mxCell>
        <mxCell id="CUxNx2Lyiru3y5fdptrg-33" value="" style="endArrow=classic;html=1;rounded=0;" edge="1" parent="1">
          <mxGeometry width="50" height="50" relative="1" as="geometry">
            <mxPoint x="100" y="240" as="sourcePoint" />
            <mxPoint x="100" y="310" as="targetPoint" />
          </mxGeometry>
        </mxCell>
        <mxCell id="CUxNx2Lyiru3y5fdptrg-34" value="" style="endArrow=classic;html=1;rounded=0;" edge="1" parent="1">
          <mxGeometry width="50" height="50" relative="1" as="geometry">
            <mxPoint x="100" y="360" as="sourcePoint" />
            <mxPoint x="100" y="430" as="targetPoint" />
          </mxGeometry>
        </mxCell>
        <mxCell id="CUxNx2Lyiru3y5fdptrg-35" value="" style="endArrow=classic;html=1;rounded=0;" edge="1" parent="1">
          <mxGeometry width="50" height="50" relative="1" as="geometry">
            <mxPoint x="100" y="480" as="sourcePoint" />
            <mxPoint x="100" y="550" as="targetPoint" />
          </mxGeometry>
        </mxCell>
        <mxCell id="CUxNx2Lyiru3y5fdptrg-36" value="" style="endArrow=none;html=1;rounded=0;" edge="1" parent="1">
          <mxGeometry width="50" height="50" relative="1" as="geometry">
            <mxPoint x="100" y="630" as="sourcePoint" />
            <mxPoint x="240" y="630" as="targetPoint" />
          </mxGeometry>
        </mxCell>
        <mxCell id="CUxNx2Lyiru3y5fdptrg-37" value="" style="endArrow=classic;html=1;rounded=0;" edge="1" parent="1">
          <mxGeometry width="50" height="50" relative="1" as="geometry">
            <mxPoint x="100" y="630" as="sourcePoint" />
            <mxPoint x="100" y="610" as="targetPoint" />
          </mxGeometry>
        </mxCell>
      </root>
    </mxGraphModel>
  </diagram>
</mxfile>
